<svg width="60" height="59" fill="none" xmlns="http://www.w3.org/2000/svg"><g clip-path="url(#clip0)" fill="#CACACA"><path d="M24.482 29.222a5.593 5.593 0 1011.186 0 5.593 5.593 0 00-11.186 0z"/><path d="M16.994 19.326a5.2 5.2 0 011.255-1.93 5.195 5.195 0 011.93-1.255c.59-.23 1.48-.503 3.115-.577 1.77-.08 2.3-.098 6.78-.098 4.482 0 5.012.017 6.782.098 1.636.074 2.524.348 3.115.577a5.191 5.191 0 011.93 1.256c.557.54.986 1.2 1.255 1.929.23.591.503 1.48.578 3.116.08 1.77.098 2.3.098 6.78 0 4.481-.018 5.012-.098 6.781-.075 1.636-.348 2.525-.578 3.116a5.201 5.201 0 01-1.255 1.93c-.541.557-1.2.986-1.93 1.255-.59.23-1.48.503-3.115.577-1.77.081-2.3.098-6.78.098-4.482 0-5.013-.017-6.781-.098-1.636-.074-2.525-.348-3.116-.578a5.557 5.557 0 01-3.185-3.184c-.23-.591-.503-1.48-.578-3.116-.08-1.77-.098-2.3-.098-6.78 0-4.481.017-5.012.098-6.781.075-1.636.348-2.525.578-3.116zm13.08 18.513a8.617 8.617 0 100-17.233 8.616 8.616 0 100 17.233zm-8.956-15.56a2.014 2.014 0 100-4.028 2.014 2.014 0 000 4.028z"/><path d="M30.075 0c16.137 0 29.222 13.086 29.222 29.222 0 16.137-13.085 29.223-29.222 29.223S.853 45.359.853 29.222C.853 13.086 13.938 0 30.075 0zM13.396 36.14c.081 1.787.365 3.006.78 4.074a8.58 8.58 0 004.908 4.907c1.067.415 2.287.698 4.072.78 1.79.082 2.361.101 6.919.101 4.557 0 5.128-.02 6.918-.1 1.786-.083 3.006-.366 4.073-.78a8.221 8.221 0 002.972-1.937 8.223 8.223 0 001.935-2.971c.415-1.067.7-2.287.78-4.073.083-1.79.102-2.362.102-6.919 0-4.557-.02-5.128-.101-6.918-.081-1.786-.365-3.006-.78-4.073a8.221 8.221 0 00-1.936-2.972 8.219 8.219 0 00-2.972-1.936c-1.067-.414-2.287-.698-4.073-.78-1.79-.081-2.361-.1-6.918-.1s-5.129.019-6.918.101c-1.786.081-3.006.365-4.073.779a8.226 8.226 0 00-2.973 1.936 8.221 8.221 0 00-1.935 2.972c-.415 1.067-.699 2.287-.78 4.073-.082 1.79-.101 2.361-.101 6.918s.02 5.129.101 6.918z"/></g><defs><clipPath id="clip0"><path fill="#fff" transform="matrix(-1 0 0 1 59.297 0)" d="M0 0h58.445v58.445H0z"/></clipPath></defs></svg>